HIERARCHY
ROOT Pelvis
{
	OFFSET 0.000000 0.000000 0.000000
	CHANNELS 6 Xposition Yposition Zposition Xrotation Yrotation Zrotation
	JOINT LeftUpLeg_virtual
	{
		OFFSET 0.000000 0.000000 0.000000
		CHANNELS 3 Xrotation Yrotation Zrotation
		JOINT LeftUpLeg
		{
			OFFSET 8.479700 -4.795502 -0.379100
			CHANNELS 3 Xrotation Yrotation Zrotation
			JOINT LeftLeg
			{
				OFFSET 0.024144 -32.555107 0.112900
				CHANNELS 3 Xrotation Yrotation Zrotation
				JOINT LeftFoot
				{
					OFFSET -0.024144 -32.638630 -3.012600
					CHANNELS 3 Xrotation Yrotation Zrotation
					JOINT LeftToeBase
					{
						OFFSET 0.970200 -13.225400 11.864200
						CHANNELS 3 Xrotation Yrotation Zrotation
						End Site
						{
							OFFSET 0 0 0
						}
					}
				}
			}
		}
	}
	JOINT RightUpLeg_virtual
	{
		OFFSET 0.000000 0.000000 0.000000
		CHANNELS 3 Xrotation Yrotation Zrotation
		JOINT RightUpLeg
		{
			OFFSET -8.479700 -4.795502 -0.379100
			CHANNELS 3 Xrotation Yrotation Zrotation
			JOINT RightLeg
			{
				OFFSET -0.023144 -32.555092 0.112900
				CHANNELS 3 Xrotation Yrotation Zrotation
				JOINT RightFoot
				{
					OFFSET 0.023144 -32.638641 -3.012700
					CHANNELS 3 Xrotation Yrotation Zrotation
					JOINT RightToeBase
					{
						OFFSET -0.970200 -13.225400 11.864200
						CHANNELS 3 Xrotation Yrotation Zrotation
						End Site
						{
							OFFSET 0 0 0
						}
					}
				}
			}
		}
	}
	JOINT Hips_virtual
	{
		OFFSET 0.000000 0.000000 0.000000
		CHANNELS 3 Xrotation Yrotation Zrotation
		JOINT Hips
		{
			OFFSET -0.000000 -0.000000 -0.000000
			CHANNELS 3 Xrotation Yrotation Zrotation
			JOINT Spine
			{
				OFFSET 0.000000 7.722000 1.166200
				CHANNELS 3 Xrotation Yrotation Zrotation
				JOINT Spine1
				{
					OFFSET 0.000000 12.024101 0.248800
					CHANNELS 3 Xrotation Yrotation Zrotation
					JOINT Spine2
					{
						OFFSET 0.000000 11.502998 -0.491200
						CHANNELS 3 Xrotation Yrotation Zrotation
						JOINT Neck_virtual
						{
							OFFSET 0.000000 0.000000 0.000000
							CHANNELS 3 Xrotation Yrotation Zrotation
							JOINT Neck
							{
								OFFSET 0.000000 18.430702 -3.123100
								CHANNELS 3 Xrotation Yrotation Zrotation
								JOINT Head
								{
									OFFSET 0.000000 9.051102 1.034000
									CHANNELS 3 Xrotation Yrotation Zrotation
									End Site
									{
										OFFSET 0 0 0
									}
								}
							}
						}
						JOINT LeftShoulder_virtual
						{
							OFFSET 0.000000 0.000000 0.000000
							CHANNELS 3 Xrotation Yrotation Zrotation
							JOINT LeftShoulder
							{
								OFFSET 6.197800 13.665199 -4.064700
								CHANNELS 3 Xrotation Yrotation Zrotation
								JOINT LeftArm
								{
									OFFSET 7.778100 -0.187103 -1.709300
									CHANNELS 3 Xrotation Yrotation Zrotation
									JOINT LeftForeArm
									{
										OFFSET 22.049376 0.000000 0.000000
										CHANNELS 3 Xrotation Yrotation Zrotation
										JOINT LeftHand
										{
											OFFSET 23.009392 0.000000 0.000000
											CHANNELS 3 Xrotation Yrotation Zrotation
											End Site
											{
												OFFSET 0 0 0
											}
										}
									}
								}
							}
						}
						JOINT RightShoulder_virtual
						{
							OFFSET 0.000000 0.000000 0.000000
							CHANNELS 3 Xrotation Yrotation Zrotation
							JOINT RightShoulder
							{
								OFFSET -6.197800 13.665199 -4.064700
								CHANNELS 3 Xrotation Yrotation Zrotation
								JOINT RightArm
								{
									OFFSET -7.778100 -0.187103 -1.709300
									CHANNELS 3 Xrotation Yrotation Zrotation
									JOINT RightForeArm
									{
										OFFSET -22.049376 0.000000 0.000000
										CHANNELS 3 Xrotation Yrotation Zrotation
										JOINT RightHand
										{
											OFFSET -23.009392 0.000000 0.000000
											CHANNELS 3 Xrotation Yrotation Zrotation
											End Site
											{
												OFFSET 0 0 0
											}
										}
									}
								}
							}
						}
					}
				}
			}
		}
	}
}
MOTION
Frames: 12
Frame Time: 0.03333333
-0.968454 48.717529 0.541204 0.000000 0.000000 0.000000 -179.639972 -4.632108 170.930566 -80.933329 -12.359425 13.865400 115.615732 8.239175 3.485641 -31.777008 4.182234 -12.527479 0.000000 0.000000 0.000000 -179.639972 -4.632108 170.930566 -61.176030 10.942231 -24.637233 105.580019 0.136160 -0.866781 -26.345985 -8.219803 27.411719 0.000000 0.000000 0.000000 -179.639972 -4.632108 170.930566 0.000000 -0.000001 0.000001 3.990958 3.639429 -2.153967 8.138436 6.853474 -4.615304 0.000000 0.000000 0.000000 8.138449 6.853472 -4.615313 -3.924079 28.385122 6.948707 0.000000 0.000000 0.000000 8.138449 6.853472 -4.615313 0.991959 -15.521564 -11.873504 2.947327 -1.004904 -32.103788 39.921943 -32.872597 -2.089479 0.000000 0.000000 0.000000 8.138449 6.853472 -4.615313 3.297407 -18.314896 12.160855 12.768040 -13.236291 60.187060 30.213096 39.380173 -4.024305 0.000000 0.000000 0.000000 
-0.971675 48.719353 0.538338 0.000000 0.000000 0.000000 -179.670476 -4.646205 170.914802 -80.968396 -12.368877 13.846632 115.615377 8.243296 3.485703 -31.775795 4.180118 -12.522142 0.000000 0.000000 0.000000 -179.670476 -4.646205 170.914802 -61.185012 10.932906 -24.638026 105.572042 0.124857 -0.862892 -26.348898 -8.221619 27.412985 0.000000 0.000000 0.000000 -179.670476 -4.646205 170.914802 0.000000 0.000000 -0.000001 3.979388 3.639751 -2.152075 8.115215 6.854065 -4.611585 0.000000 0.000000 0.000000 8.115217 6.854063 -4.611584 -3.893994 28.384584 6.949295 0.000000 0.000000 0.000000 8.115217 6.854063 -4.611584 0.983008 -15.541319 -11.895351 2.965900 -0.975595 -32.060894 39.955568 -32.910587 -2.104580 0.000000 0.000000 0.000000 8.115217 6.854063 -4.611584 3.299768 -18.344995 12.110433 12.768938 -13.198108 60.241394 30.218270 39.297606 -4.016868 0.000000 0.000000 0.000000 
-0.971084 48.720375 0.534142 0.000000 0.000000 0.000000 -179.695474 -4.641776 170.904065 -80.992554 -12.371073 13.864261 115.617262 8.229985 3.484720 -31.782643 4.174106 -12.510401 0.000000 0.000000 0.000000 -179.695474 -4.641776 170.904065 -61.202511 10.929387 -24.619197 105.573339 0.111593 -0.858805 -26.361088 -8.224169 27.411532 0.000000 0.000000 0.000000 -179.695474 -4.641776 170.904065 0.000000 0.000000 0.000000 3.968517 3.639614 -2.153986 8.093581 6.853829 -4.615531 0.000000 0.000000 0.000000 8.093581 6.853823 -4.615527 -3.941502 28.376350 6.975598 0.000000 0.000000 0.000000 8.093581 6.853823 -4.615527 0.984357 -15.557363 -11.893239 2.993947 -0.936732 -32.027795 39.996994 -32.956011 -2.104852 0.000000 0.000000 0.000000 8.093581 6.853823 -4.615527 3.302530 -18.350063 12.097408 12.769797 -13.185352 60.268449 30.241325 39.257059 -4.029741 0.000000 0.000000 0.000000 
-0.971710 48.718300 0.529696 0.000000 0.000000 0.000000 -179.721156 -4.649792 170.887850 -81.029621 -12.372157 13.882329 115.626169 8.206574 3.483151 -31.790876 4.159974 -12.483403 0.000000 0.000000 0.000000 -179.721156 -4.649792 170.887850 -61.220331 10.907927 -24.623293 105.577021 0.106639 -0.857208 -26.374495 -8.223390 27.403632 0.000000 0.000000 0.000000 -179.721156 -4.649792 170.887850 0.000000 0.000000 -0.000001 3.959322 3.639706 -2.152578 8.075130 6.853911 -4.612896 0.000000 0.000000 0.000000 8.075135 6.853919 -4.612902 -3.925085 28.376649 6.958249 0.000000 0.000000 0.000000 8.075135 6.853919 -4.612902 0.985481 -15.558947 -11.899328 3.003085 -0.913857 -31.997042 40.016535 -32.998246 -2.122011 0.000000 0.000000 0.000000 8.075135 6.853919 -4.612902 3.306606 -18.371390 12.069629 12.769771 -13.150463 60.289212 30.289949 39.220288 -4.043918 0.000000 0.000000 0.000000 
-0.972104 48.715790 0.524426 0.000000 0.000000 0.000000 -179.742042 -4.654368 170.883915 -81.054722 -12.369456 13.888577 115.633136 8.196709 3.482302 -31.797932 4.155703 -12.472789 0.000000 0.000000 0.000000 -179.742042 -4.654368 170.883915 -61.238650 10.893008 -24.643058 105.582621 0.103194 -0.856521 -26.391784 -8.216585 27.382140 0.000000 0.000000 0.000000 -179.742042 -4.654368 170.883915 0.000000 0.000000 -0.000001 3.951903 3.639387 -2.156795 8.060528 6.852984 -4.621322 0.000000 0.000000 0.000000 8.060524 6.852988 -4.621325 -3.932791 28.374821 6.974316 0.000000 0.000000 0.000000 8.060524 6.852988 -4.621325 0.989925 -15.559825 -11.884042 3.012707 -0.895598 -31.957034 40.026500 -33.053635 -2.138680 0.000000 0.000000 0.000000 8.060524 6.852988 -4.621325 3.317319 -18.385624 12.077695 12.768340 -13.123606 60.285913 30.338351 39.207246 -4.054800 0.000000 0.000000 0.000000 
-0.973600 48.714310 0.521296 0.000000 0.000000 0.000000 -179.759405 -4.656514 170.881101 -81.076046 -12.364748 13.892714 115.637616 8.191214 3.481696 -31.802426 4.151889 -12.463266 0.000000 0.000000 0.000000 -179.759405 -4.656514 170.881101 -61.254981 10.884351 -24.657172 105.585763 0.102514 -0.856276 -26.397211 -8.211585 27.370870 0.000000 0.000000 0.000000 -179.759405 -4.656514 170.881101 0.000000 0.000000 0.000000 3.946463 3.639211 -2.161542 8.049900 6.852351 -4.630619 0.000000 0.000000 0.000000 8.049905 6.852357 -4.630626 -3.956248 28.371834 6.989453 0.000000 0.000000 0.000000 8.049905 6.852357 -4.630626 0.994519 -15.576603 -11.870954 3.023606 -0.847042 -31.927234 40.033036 -33.111657 -2.139836 0.000000 0.000000 0.000000 8.049905 6.852357 -4.630626 3.329662 -18.400647 12.086233 12.758457 -13.093548 60.290005 30.367813 39.179577 -4.060871 0.000000 0.000000 0.000000 
-0.974135 48.713455 0.515797 0.000000 0.000000 0.000000 -179.769322 -4.664527 170.878602 -81.085882 -12.361579 13.897622 115.642233 8.182572 3.480818 -31.810670 4.148913 -12.454221 0.000000 0.000000 0.000000 -179.769322 -4.664527 170.878602 -61.258444 10.868370 -24.678792 105.591309 0.100812 -0.856620 -26.411390 -8.203898 27.349778 0.000000 0.000000 0.000000 -179.769322 -4.664527 170.878602 0.000000 0.000001 0.000000 3.941686 3.639175 -2.163482 8.040464 6.852041 -4.634607 0.000000 0.000000 0.000000 8.040465 6.852044 -4.634607 -3.932855 28.374213 6.976311 0.000000 0.000000 0.000000 8.040465 6.852044 -4.634607 0.990767 -15.591261 -11.881409 3.036783 -0.804138 -31.878976 40.038248 -33.172023 -2.150618 0.000000 0.000000 0.000000 8.040465 6.852044 -4.634607 3.335807 -18.427319 12.080599 12.748383 -13.068450 60.302934 30.370153 39.149012 -4.055358 0.000000 0.000000 0.000000 
-0.974524 48.713272 0.511101 0.000000 0.000000 0.000000 -179.775961 -4.679288 170.867304 -81.097650 -12.363046 13.909592 115.647178 8.162988 3.479253 -31.818378 4.138731 -12.433604 0.000000 0.000000 0.000000 -179.775961 -4.679288 170.867304 -61.253983 10.842286 -24.698107 105.593119 0.100770 -0.857100 -26.414655 -8.200503 27.345709 0.000000 0.000000 0.000000 -179.775961 -4.679288 170.867304 0.000000 0.000000 0.000000 3.938951 3.639869 -2.161414 8.034910 6.853197 -4.630682 0.000000 0.000000 0.000000 8.034918 6.853201 -4.630680 -3.886910 28.379018 6.942613 0.000000 0.000000 0.000000 8.034918 6.853201 -4.630680 0.976909 -15.609392 -11.916628 3.043002 -0.742982 -31.824498 40.043364 -33.239122 -2.145942 0.000000 0.000000 0.000000 8.034918 6.853201 -4.630680 3.336388 -18.459136 12.041839 12.740243 -13.038988 60.364843 30.366167 39.076608 -4.084383 0.000000 0.000000 0.000000 
-0.973977 48.711868 0.504856 0.000000 0.000000 0.000000 -179.781753 -4.702975 170.855871 -81.108503 -12.372218 13.907962 115.654200 8.145488 3.477796 -31.825615 4.132528 -12.419803 0.000000 0.000000 0.000000 -179.781753 -4.702975 170.855871 -61.241279 10.815115 -24.722490 105.595462 0.099450 -0.857727 -26.424007 -8.200314 27.347763 0.000000 0.000000 0.000000 -179.781753 -4.702975 170.855871 0.000000 0.000000 0.000000 3.936375 3.641491 -2.157493 8.029630 6.856131 -4.623163 0.000000 0.000000 0.000000 8.029627 6.856119 -4.623148 -3.839401 28.384359 6.890967 0.000000 0.000000 0.000000 8.029627 6.856119 -4.623148 0.970343 -15.601631 -11.936679 3.034984 -0.733812 -31.796067 40.046072 -33.271477 -2.141454 0.000000 0.000000 0.000000 8.029627 6.856119 -4.623148 3.332076 -18.502276 11.992916 12.736848 -13.006512 60.429668 30.360758 39.005018 -4.095348 0.000000 0.000000 0.000000 
-0.974247 48.706688 0.500496 0.000000 0.000000 0.000000 -179.787491 -4.726547 170.836733 -81.128133 -12.393000 13.901826 115.669008 8.129347 3.476465 -31.830765 4.127216 -12.407961 0.000000 0.000000 0.000000 -179.787491 -4.726547 170.836733 -61.231061 10.789430 -24.734975 105.601336 0.096214 -0.858120 -26.436105 -8.201904 27.354725 0.000000 0.000000 0.000000 -179.787491 -4.726547 170.836733 0.000000 0.000000 -0.000001 3.936145 3.643727 -2.153394 8.029081 6.859957 -4.615835 0.000000 0.000000 0.000000 8.029091 6.859957 -4.615827 -3.742314 28.382713 6.854988 0.000000 0.000000 0.000000 8.029091 6.859957 -4.615827 0.962528 -15.618042 -11.957358 3.035530 -0.677057 -31.765140 40.052950 -33.351295 -2.115348 0.000000 0.000000 0.000000 8.029091 6.859957 -4.615827 3.329149 -18.526895 11.947673 12.742413 -12.986559 60.484351 30.355690 38.949393 -4.106701 0.000000 0.000000 0.000000 
-0.972277 48.698975 0.495487 0.000000 0.000000 0.000000 -179.794088 -4.759187 170.817171 -81.155932 -12.414163 13.898911 115.687422 8.104364 3.474554 -31.834747 4.117270 -12.389371 0.000000 0.000000 0.000000 -179.794088 -4.759187 170.817171 -61.217674 10.764051 -24.746419 105.617988 0.082243 -0.858880 -26.456181 -8.205584 27.361656 0.000000 0.000000 0.000000 -179.794088 -4.759187 170.817171 0.000000 0.000000 0.000001 3.937119 3.646076 -2.148595 8.030920 6.863787 -4.607174 0.000000 0.000000 0.000000 8.030927 6.863785 -4.607173 -3.656333 28.386507 6.834177 0.000000 0.000000 0.000000 8.030927 6.863785 -4.607173 0.959798 -15.688125 -11.959253 3.054905 -0.587564 -31.736368 40.019379 -33.455257 -2.109756 0.000000 0.000000 0.000000 8.030927 6.863785 -4.607173 3.335216 -18.510764 11.902773 12.763613 -12.984826 60.554231 30.350434 38.893454 -4.118196 0.000000 0.000000 0.000000 
-0.968642 48.691109 0.493504 0.000000 0.000000 0.000000 -179.799539 -4.782945 170.786230 -81.187378 -12.448008 13.909986 115.706820 8.074296 3.472418 -31.833920 4.106390 -12.369220 0.000000 0.000000 0.000000 -179.799539 -4.782945 170.786230 -61.205940 10.745765 -24.717369 105.632202 0.045310 -0.860860 -26.469425 -8.216134 27.386064 0.000000 0.000000 0.000000 -179.799539 -4.782945 170.786230 0.000000 0.000000 -0.000001 3.938990 3.652713 -2.139057 8.034568 6.876348 -4.590089 0.000000 0.000000 0.000000 8.034562 6.876343 -4.590088 -3.549689 28.398089 6.774686 0.000000 0.000000 0.000000 8.034562 6.876343 -4.590088 0.945735 -15.704644 -11.995540 3.049249 -0.545981 -31.688898 39.991297 -33.558898 -2.101920 0.000000 0.000000 0.000000 8.034562 6.876343 -4.590088 3.333994 -18.557598 11.825789 12.764149 -12.943050 60.638816 30.343696 38.807414 -4.142921 0.000000 0.000000 0.000000 
